<svg width="92" height="92" viewBox="0 0 92 92" fill="none" xmlns="http://www.w3.org/2000/svg">
<path fill-rule="evenodd" clip-rule="evenodd" d="M79.3244 54.929C80.6476 49.9905 80.8294 45.0151 80.0315 40.2828C78.9631 43.7097 77.0566 46.6701 74.5978 48.9938L74.5952 49.0185C72.7551 50.8307 70.5859 52.2796 68.2011 53.2856C65.5217 54.4159 62.6318 54.9611 59.7248 54.8847C56.8177 54.8083 53.9605 54.1122 51.3442 52.8428C48.7278 51.5734 46.4126 49.76 44.5534 47.5239C42.6942 45.2878 41.3339 42.6806 40.5634 39.8765C39.7928 37.0724 39.6299 34.1361 40.0854 31.2639C40.5409 28.3918 41.6043 25.65 43.2047 23.2219C44.6973 20.9571 46.625 19.0139 48.8736 17.5041C51.7409 15.5004 55.1118 14.2374 58.6662 13.9056C57.4588 13.4308 56.2122 13.0191 54.9292 12.6753C36.5246 7.74383 17.607 18.6659 12.6755 37.0705C7.74399 55.4751 18.6661 74.3927 37.0707 79.3242C55.4752 84.2557 74.3929 73.3336 79.3244 54.929ZM72.0075 58.2656C66.1983 70.6202 52.2093 77.4277 38.5589 73.7701C23.2217 69.6606 14.12 53.8959 18.2296 38.5587C21.0676 27.967 29.4642 20.349 39.4398 18.0024C38.9674 18.6 38.5201 19.2187 38.0993 19.857C36.02 23.0119 34.6382 26.5744 34.0464 30.3062C33.4545 34.038 33.6663 37.8532 34.6674 41.4966C35.6686 45.14 37.4361 48.5277 39.8518 51.4331C42.2675 54.3385 45.2756 56.6946 48.6751 58.3439C52.0746 59.9933 55.787 60.8978 59.5642 60.997C63.3414 61.0963 67.0962 60.3879 70.5776 58.9193C71.0612 58.7153 71.5381 58.4972 72.0075 58.2656ZM74.3486 24.7655L72.8408 20.125L71.333 24.7655L66.4536 24.7655L70.4011 27.6336L68.8933 32.2741L72.8408 29.4061L76.7883 32.2741L75.2805 27.6336L79.228 24.7655L74.3486 24.7655ZM55.5908 20.125L57.0986 24.7655L61.978 24.7655L58.0305 27.6336L59.5383 32.2741L55.5908 29.4061L51.6433 32.2741L53.1511 27.6336L49.2036 24.7655L54.083 24.7655L55.5908 20.125ZM65.7236 36.2655L64.2158 31.625L62.708 36.2655L57.8286 36.2655L61.7761 39.1336L60.2683 43.7741L64.2158 40.9061L68.1633 43.7741L66.6555 39.1336L70.603 36.2655L65.7236 36.2655Z" fill="#171511"/>
</svg>
