<svg width="28" height="29" viewBox="0 0 28 29" fill="none" xmlns="http://www.w3.org/2000/svg">
<path fill-rule="evenodd" clip-rule="evenodd" d="M9.53175 6.55595C9.88574 6.51895 10.2449 6.5 10.6083 6.5C15.469 6.5 19.5661 9.88976 20.821 14.5139C20.9215 14.5073 21.0225 14.5031 21.1241 14.5012C21.0828 14.5005 21.0414 14.5001 21 14.5001L20.9664 14.5002L20.9664 14.5H22.5H22.5602V14.4995C24.4654 14.4673 26 12.9129 26 11C26 9.067 24.433 7.5 22.5 7.5C21.8509 7.5 21.2432 7.67666 20.7221 7.98451C20.7206 7.42577 20.6357 6.88663 20.4793 6.37885C19.7001 4.12147 17.5567 2.5 15.0345 2.5C12.4468 2.5 10.2578 4.20676 9.53175 6.55595ZM25.1766 15.8059C26.8861 17.0759 28 19.153 28 21.5C28 25.366 24.9776 28.5 21.2493 28.5C21.1658 28.5 21.0827 28.4984 21 28.4953V28.5H10.7671V28.4988C10.7143 28.4996 10.6613 28.5 10.6083 28.5C4.74949 28.5 0 23.5751 0 17.5C0 12.5943 3.09693 8.4387 7.37412 7.02057C7.96691 3.32406 11.1709 0.5 15.0345 0.5C18.3494 0.5 21.1787 2.57884 22.2899 5.50394C22.3596 5.50132 22.4296 5.5 22.5 5.5C25.5375 5.5 28 7.96243 28 11C28 13.0659 26.8609 14.8658 25.1766 15.8059ZM21 26.5H10.7671H10.652V26.4999L10.6083 26.5C5.92179 26.5 2 22.5395 2 17.5C2 12.4605 5.92179 8.5 10.6083 8.5C14.5839 8.5 18.0091 11.35 18.9569 15.2911L18.9599 15.2899C19.0937 15.8367 19.1791 16.4037 19.2108 16.9855C19.8339 16.6732 20.5272 16.5 21.2493 16.5C23.8053 16.5 26 18.6696 26 21.5C26 24.3105 23.8359 26.4695 21.3029 26.4996V26.5H21Z" fill="#171511"/>
</svg>
