<svg width="33" height="33" viewBox="0 0 33 33" fill="none" xmlns="http://www.w3.org/2000/svg">
<path fill-rule="evenodd" clip-rule="evenodd" d="M24.5 24.4572C27.875 24.07 30.5 21.1028 30.5 17.5C30.5 13.634 27.4776 10.5 23.7493 10.5C23.6054 10.5 23.4626 10.5047 23.321 10.5139C22.0661 5.88976 17.969 2.5 13.1083 2.5C7.24949 2.5 2.5 7.42487 2.5 13.5C2.5 18.6419 5.90237 22.9598 10.5 24.165V22.0772C7.05261 20.9291 4.5 17.5657 4.5 13.5C4.5 8.46046 8.42179 4.5 13.1083 4.5C17.0839 4.5 20.5091 7.35004 21.4569 11.2911L21.4599 11.2899C21.5937 11.8367 21.6791 12.4037 21.7108 12.9855C22.3339 12.6732 23.0272 12.5 23.7493 12.5C26.3053 12.5 28.5 14.6696 28.5 17.5C28.5 20.0486 26.7205 22.0615 24.5 22.437V24.4572ZM14.0021 28.5021C14.2442 28.5021 14.5022 28.2921 14.5021 27.956C14.5021 27.772 14.4389 27.4263 14.2435 26.9168C14.1656 26.7136 14.0746 26.5045 13.9744 26.2938C13.6753 26.9437 13.5015 27.5277 13.5017 27.956C13.5018 28.2921 13.7599 28.5021 14.0021 28.5021ZM12.7923 24.2572C13.4029 23.2302 14.0002 22.5 14.0002 22.5C14.0002 22.5 14.5699 23.2554 15.1655 24.2778C15.818 25.3977 16.5018 26.8379 16.5021 27.956C16.5025 29.3622 15.3835 30.5021 14.0027 30.5021C12.6218 30.5021 11.5021 29.3622 11.5017 27.956C11.5013 26.729 12.154 25.3309 12.7923 24.2572ZM20.5021 24.956C20.5022 25.2921 20.2442 25.5021 20.0021 25.5021C19.7599 25.5021 19.5018 25.2921 19.5017 24.956C19.5015 24.5277 19.6753 23.9437 19.9744 23.2938C20.0746 23.5045 20.1656 23.7136 20.2435 23.9168C20.4389 24.4263 20.5021 24.772 20.5021 24.956ZM20.0002 19.5C20.0002 19.5 19.4029 20.2302 18.7923 21.2572C18.154 22.3309 17.5013 23.729 17.5017 24.956C17.5021 26.3622 18.6218 27.5021 20.0027 27.5021C21.3835 27.5021 22.5025 26.3622 22.5021 24.956C22.5018 23.8379 21.818 22.3977 21.1655 21.2778C20.5699 20.2554 20.0002 19.5 20.0002 19.5Z" fill="#171511"/>
</svg>
