<svg width="33" height="33" viewBox="0 0 33 33" fill="none" xmlns="http://www.w3.org/2000/svg">
<path fill-rule="evenodd" clip-rule="evenodd" d="M2.5 13.5C2.5 18.2615 5.41752 22.3163 9.5 23.8473V21.6706C6.5703 20.2535 4.5 17.1616 4.5 13.5C4.5 8.46046 8.42179 4.5 13.1083 4.5C17.0839 4.5 20.5091 7.35004 21.4569 11.2911L21.4599 11.2899C21.5937 11.8367 21.6791 12.4037 21.7108 12.9855C22.3339 12.6732 23.0272 12.5 23.7493 12.5C26.3053 12.5 28.5 14.6696 28.5 17.5C28.5 20.3105 26.3359 22.4695 23.8029 22.4996V22.5H23.5V24.4953C23.5827 24.4984 23.6658 24.5 23.7493 24.5C27.4776 24.5 30.5 21.366 30.5 17.5C30.5 13.634 27.4776 10.5 23.7493 10.5C23.6054 10.5 23.4626 10.5047 23.321 10.5139C22.0661 5.88976 17.969 2.5 13.1083 2.5C7.24949 2.5 2.5 7.42487 2.5 13.5ZM17.668 16.9453L13.668 22.9453L12.6315 24.5H14.5H17.5442L14.356 28.9145L15.9773 30.0855L20.3107 24.0855L21.4558 22.5H19.5H16.3685L19.3321 18.0547L17.668 16.9453ZM20.8609 27.4244C20.6533 27.9108 20.5009 28.4308 20.501 28.9091C20.5013 29.7877 21.1731 30.5 22.0015 30.5C22.83 30.5 23.5013 29.7877 23.501 28.9091C23.5009 28.4619 23.3327 27.9321 23.109 27.4252C22.6643 26.4175 22 25.5 22 25.5C22 25.5 21.3044 26.3856 20.8609 27.4244ZM9.50105 28.9091C9.5009 28.4308 9.65328 27.9108 9.86092 27.4244C10.3044 26.3856 11 25.5 11 25.5C11 25.5 11.6643 26.4175 12.109 27.4252C12.3327 27.9321 12.5009 28.4619 12.501 28.9091C12.5013 29.7877 11.83 30.5 11.0015 30.5C10.1731 30.5 9.50132 29.7877 9.50105 28.9091Z" fill="#171511"/>
</svg>
