<svg width="92" height="92" viewBox="0 0 92 92" fill="none" xmlns="http://www.w3.org/2000/svg">
<path fill-rule="evenodd" clip-rule="evenodd" d="M40.2504 31.6088L40.2504 31.5919L23.9757 31.5917L39.5869 25.9507L39.5852 25.9461C39.8841 25.8707 40.1935 25.8438 40.5014 25.8668C40.542 25.8698 40.5826 25.8737 40.6232 25.8785L40.6238 25.8786C41.0466 25.9284 41.453 26.0715 41.8138 26.2976L41.8138 26.2976C42.1746 26.5237 42.4806 26.8272 42.7098 27.186L42.7101 27.1866C42.9392 27.5454 43.0858 27.9507 43.1392 28.3731L43.1393 28.3739C43.1926 28.7965 43.1514 29.2257 43.0186 29.6304L43.0185 29.6307C42.8857 30.0355 42.6645 30.4057 42.3711 30.7146L42.3708 30.7149C42.0775 31.0236 41.7192 31.2632 41.3219 31.4165L41.3211 31.4168C41.2838 31.4312 41.2462 31.4448 41.2083 31.4576C40.8997 31.5619 40.5758 31.613 40.2504 31.6088ZM11.5 29.985V37.342L40.1913 37.3424C41.2809 37.3546 42.3647 37.1597 43.3845 36.7663L43.3853 36.766C44.1616 36.4664 44.8881 36.0567 45.5433 35.5513C45.8922 35.2821 46.2209 34.9858 46.5261 34.6646L46.5264 34.6643C47.4048 33.7397 48.0668 32.6314 48.4646 31.4195L48.4647 31.4192C48.8624 30.2074 48.986 28.9222 48.8264 27.6568L48.8263 27.656C48.6667 26.3905 48.2279 25.1763 47.5417 24.1012L47.5413 24.1006C46.8549 23.0254 45.9382 22.1162 44.8575 21.4388L44.8574 21.4388C44.4819 21.2034 44.0898 20.9981 43.6848 20.824C42.9244 20.4973 42.1188 20.281 41.2923 20.1839L41.2917 20.1838C40.0603 20.0391 38.8127 20.1623 37.6341 20.5444L37.6332 20.542L37.545 20.5739L37.5346 20.5774L37.5334 20.5778L37.5335 20.578L11.5 29.985ZM11.5 54.6194V60.526L49.4667 74.0331L49.4663 74.0342C50.8403 74.5824 52.3183 74.8208 53.7949 74.7322C54.3627 74.6982 54.9249 74.6161 55.4757 74.4877C56.3574 74.2822 57.2098 73.9579 58.0092 73.5218C59.3078 72.8133 60.4343 71.8269 61.3082 70.633C62.1822 69.4391 62.7821 68.0671 63.0652 66.6147C63.3483 65.1624 63.3077 63.6654 62.9462 62.2305C62.5848 60.7957 61.9113 59.4582 60.9739 58.3135C60.3969 57.6089 59.7286 56.988 58.9887 56.4661C58.5265 56.1402 58.0364 55.8529 57.5231 55.608C56.1899 54.9719 54.7331 54.6374 53.2562 54.6281V54.6195L11.5 54.6194ZM53.2172 60.37L28.2184 60.3699L51.7045 68.7254L51.7024 68.7313C52.2607 68.9373 52.856 69.0254 53.4507 68.9898C54.083 68.9519 54.6992 68.7749 55.2554 68.4715C55.8115 68.1681 56.2938 67.7457 56.6681 67.2344C57.0423 66.7232 57.2992 66.1356 57.4205 65.5137C57.5417 64.8918 57.5243 64.2507 57.3695 63.6363C57.2147 63.0218 56.9263 62.4491 56.5249 61.9589C56.1235 61.4687 55.6189 61.0731 55.0472 60.8003C54.4762 60.5279 53.8523 60.3847 53.2198 60.3807L53.2171 60.3807L53.2171 60.3797L53.2172 60.37ZM66.1769 32.3383L66.1743 32.3398L63.3467 27.3331L63.3434 27.3273L63.3491 27.3241C64.8801 26.4601 66.5888 25.9586 68.3438 25.8582C68.5984 25.8437 68.853 25.8376 69.1071 25.84C70.6072 25.854 72.0927 26.1615 73.479 26.7479C75.1001 27.4336 76.5422 28.4824 77.6943 29.8134C78.8463 31.1445 79.6776 32.7223 80.124 34.4254C80.5704 36.1284 80.62 37.9113 80.2691 39.6365C79.9182 41.3618 79.176 42.9835 78.0998 44.3766C77.1796 45.5678 76.0362 46.5648 74.7361 47.3132C74.5157 47.4401 74.2907 47.5598 74.0616 47.6721C72.4812 48.4471 70.744 48.8488 68.9839 48.8463V48.8455H11.5V43.0955H68.992L68.992 43.0892C69.8712 43.0905 70.739 42.8898 71.5285 42.5027C72.3179 42.1156 73.0081 41.5524 73.5457 40.8565C74.0833 40.1606 74.454 39.3505 74.6293 38.4886C74.8046 37.6268 74.7798 36.7362 74.5568 35.8855C74.3338 35.0348 73.9186 34.2466 73.3431 33.5817C72.7676 32.9168 72.0472 32.3929 71.2374 32.0503C70.4276 31.7078 69.55 31.5557 68.6722 31.6059C67.7954 31.6561 66.9417 31.9066 66.1769 32.3383Z" fill="#171511"/>
</svg>
