<svg width="92" height="92" viewBox="0 0 92 92" fill="none" xmlns="http://www.w3.org/2000/svg">
<path fill-rule="evenodd" clip-rule="evenodd" d="M43.125 14.375V5.75H48.875V14.375H43.125ZM59.3229 17.1747L63.6354 9.70523L68.615 12.5802L64.3025 20.0497L59.3229 17.1747ZM46 66.125C57.1147 66.125 66.125 57.1147 66.125 46C66.125 34.8853 57.1147 25.875 46 25.875C34.8853 25.875 25.875 34.8853 25.875 46C25.875 57.1147 34.8853 66.125 46 66.125ZM46 71.875C60.2904 71.875 71.875 60.2904 71.875 46C71.875 31.7096 60.2904 20.125 46 20.125C31.7096 20.125 20.125 31.7096 20.125 46C20.125 60.2904 31.7096 71.875 46 71.875ZM77.625 43.125H86.25V48.875H77.625V43.125ZM79.4199 23.3852L71.9505 27.6977L74.8255 32.6773L82.2949 28.3648L79.4199 23.3852ZM23.3852 12.5802L27.6977 20.0497L32.6773 17.1747L28.3648 9.70523L23.3852 12.5802ZM17.1745 32.6773L9.70506 28.3648L12.5801 23.3852L20.0495 27.6977L17.1745 32.6773ZM43.125 77.625V86.25H48.875V77.625H43.125ZM14.375 43.125H5.75V48.875H14.375V43.125ZM9.7049 63.6352L17.1744 59.3227L20.0494 64.3023L12.5799 68.6148L9.7049 63.6352ZM27.6979 71.9508L23.3854 79.4203L28.365 82.2953L32.6775 74.8258L27.6979 71.9508ZM63.6352 82.2953L59.3227 74.8258L64.3023 71.9508L68.6148 79.4203L63.6352 82.2953ZM71.9506 64.3023L79.4201 68.6148L82.2951 63.6352L74.8256 59.3227L71.9506 64.3023Z" fill="#171511"/>
</svg>
